<svg width="100" height="100" viewBox="0 0 24 24" xmlns="http://www.w3.org/2000/svg">
  <path 
    d="M7 10.2C7 8.96005 7.5 7.88005 8.5 7C9.5 6.12005 10 5.04005 10 3.8C10 2.8 9.6 2 9 1.4C8.4 0.800049 7.5 0.400049 6.5 0.400049C4.7 0.400049 3.3 1.20005 2.3 2.80005C1.3 4.40005 0.8 6.44005 0.8 8.92005C0.8 11.4 1.4 13.4 2.6 14.9C3.8 16.4 5.4 17.2 7.4 17.2V15C6.4 15 5.6 14.6 5 13.8C4.4 13 4.1 11.8 4.1 10.2H7Z" 
    fill="#9b87f5"
    transform="translate(2, 3)"
  />
  <path 
    d="M7 10.2C7 8.96005 7.5 7.88005 8.5 7C9.5 6.12005 10 5.04005 10 3.8C10 2.8 9.6 2 9 1.4C8.4 0.800049 7.5 0.400049 6.5 0.400049C4.7 0.400049 3.3 1.20005 2.3 2.80005C1.3 4.40005 0.8 6.44005 0.8 8.92005C0.8 11.4 1.4 13.4 2.6 14.9C3.8 16.4 5.4 17.2 7.4 17.2V15C6.4 15 5.6 14.6 5 13.8C4.4 13 4.1 11.8 4.1 10.2H7Z" 
    fill="#7E69AB"
    transform="translate(10, 3)"
  />
  <circle 
    cx="12" 
    cy="12" 
    r="11" 
    stroke="#D6BCFA" 
    strokeWidth="1" 
    fill="none"
  />
</svg>

